<svg xmlns="http://www.w3.org/2000/svg" width="512" height="512" viewBox="0 0 256 256">
  <g fill="none">
    <path
      d="M81.549 8.451c-11.248-11.25-29.553-11.25-40.803 0a28.812 28.812 0 0 0-6.028 31.975L1.501 73.643a2 2 0 0 0-.581 1.272L.005 87.858a2 2 0 0 0 2.136 2.137l12.943-.915c.48-.034.933-.24 1.273-.581l3.928-3.929c.304-.304.501-.696.564-1.121l1.169-7.903 7.887-1.169a1.998 1.998 0 0 0 1.685-1.686l1.168-7.886 7.903-1.169a2.006 2.006 0 0 0 1.122-.564l7.79-7.79a28.811 28.811 0 0 0 31.975-6.028C86.999 43.805 90 36.559 90 28.853c0-7.707-3.001-14.953-8.451-20.402zm-7.68 17.457a6.913 6.913 0 1 1-9.777-9.777 6.913 6.913 0 1 1 9.777 9.777z"
      fill="#DBA040" transform="matrix(2.81 0 0 2.81 1.407 1.407)" />
  </g>
</svg>